<svg width="36" height="36" viewBox="0 0 36 36" fill="none" xmlns="http://www.w3.org/2000/svg">
<g id="Navigation / Car_Auto">
<path id="Vector" d="M4.5 16.5H31.5M30 25.5V17.5186C30 17.1383 30.0001 16.9483 29.9766 16.7613C29.9556 16.5952 29.9206 16.4311 29.8722 16.2708C29.8179 16.0904 29.7404 15.9167 29.586 15.5692L27.2666 10.3506C26.808 9.3188 26.5787 8.80279 26.2163 8.4245C25.8959 8.09012 25.5031 7.83451 25.0674 7.67756C24.5745 7.5 24.0095 7.5 22.8804 7.5H13.1191C11.99 7.5 11.4257 7.5 10.9329 7.67756C10.4972 7.83451 10.1041 8.09012 9.78369 8.4245C9.42126 8.80279 9.19178 9.3188 8.73321 10.3506L6.41382 15.5692C6.25937 15.9167 6.18183 16.0904 6.12744 16.2708C6.07913 16.4311 6.04453 16.5952 6.02358 16.7613C6 16.9483 6 17.1383 6 17.5186V25.5M30 25.5L6 25.5M30 25.5V27C30 28.6569 28.6569 30 27 30C25.3431 30 24 28.6569 24 27V25.5M6 25.5V27C6 28.6569 7.34315 30 9 30C10.6569 30 12 28.6569 12 27V25.5" stroke="#BB58FF" stroke-width="2" stroke-linecap="round" stroke-linejoin="round"/>
</g>
</svg>
