<svg width="19" height="19" viewBox="0 0 19 19" fill="none" xmlns="http://www.w3.org/2000/svg">
<g clip-path="url(#clip0_830_2606)">
<path d="M9.49967 17.4167C13.8719 17.4167 17.4163 13.8723 17.4163 9.50001C17.4163 5.12776 13.8719 1.58334 9.49967 1.58334C5.12742 1.58334 1.58301 5.12776 1.58301 9.50001C1.58301 13.8723 5.12742 17.4167 9.49967 17.4167Z" stroke="black" stroke-width="1.58333" stroke-linecap="round" stroke-linejoin="round"/>
<path d="M7.19482 7.12499C7.38095 6.5959 7.74832 6.14974 8.23187 5.86556C8.71542 5.58137 9.28395 5.47749 9.83676 5.57231C10.3896 5.66713 10.891 5.95453 11.2522 6.38362C11.6134 6.81271 11.8111 7.35578 11.8102 7.91666C11.8102 9.49999 9.43524 10.2917 9.43524 10.2917" stroke="black" stroke-width="1.58333" stroke-linecap="round" stroke-linejoin="round"/>
<path d="M9.5 13.4583H9.51144" stroke="black" stroke-width="1.58333" stroke-linecap="round" stroke-linejoin="round"/>
</g>
<defs>
<clipPath id="clip0_830_2606">
<rect width="19" height="19" fill="white"/>
</clipPath>
</defs>
</svg>
