<svg width="24" height="25" viewBox="0 0 24 25" fill="none" xmlns="http://www.w3.org/2000/svg">
<path d="M20.7101 4.15451C20.7101 4.15451 22.6526 3.39701 22.4901 5.23651C22.4366 5.99401 21.9511 8.64551 21.5731 11.513L20.2781 20.008C20.2781 20.008 20.1701 21.2525 19.1986 21.469C18.2276 21.685 16.7706 20.7115 16.5006 20.495C16.2846 20.3325 12.4536 17.8975 11.1046 16.7075C10.7266 16.3825 10.2946 15.7335 11.1586 14.976L16.8246 9.56501C17.4721 8.91501 18.1196 7.40001 15.4216 9.24001L7.86665 14.38C7.86665 14.38 7.00315 14.9215 5.38465 14.4345L1.87665 13.352C1.87665 13.352 0.581647 12.5405 2.79415 11.729C8.19065 9.18601 14.8281 6.58901 20.7096 4.15401" fill="#161616"/>
</svg>
