<svg width="24" height="25" viewBox="0 0 24 25" fill="none" xmlns="http://www.w3.org/2000/svg">
<g clip-path="url(#clip0_1945_2172)">
<path fill-rule="evenodd" clip-rule="evenodd" d="M21.3625 15.2576C21.3625 15.2576 23.3029 17.174 23.7829 18.0608C23.7922 18.0736 23.7995 18.0878 23.8045 18.1028C24.0001 18.4304 24.0481 18.6872 23.9521 18.8768C23.7901 19.19 23.2417 19.3472 23.0557 19.3604H19.6261C19.3873 19.3604 18.8905 19.298 18.2857 18.8804C17.8237 18.5576 17.3641 18.026 16.9189 17.5064C16.2541 16.7348 15.6793 16.0652 15.0973 16.0652C15.0238 16.0651 14.9508 16.0773 14.8813 16.1012C14.4409 16.2404 13.8817 16.868 13.8817 18.5396C13.8817 19.0628 13.4689 19.3604 13.1797 19.3604H11.6089C11.0737 19.3604 8.28731 19.1732 5.81651 16.568C2.78891 13.3784 0.0697081 6.98005 0.0433081 6.92365C-0.125892 6.50965 0.229308 6.28405 0.613308 6.28405H4.07651C4.54091 6.28405 4.69211 6.56485 4.79771 6.81685C4.92011 7.10605 5.37371 8.26285 6.11771 9.56245C7.32251 11.6768 8.06291 12.5372 8.65451 12.5372C8.76566 12.5376 8.87492 12.5086 8.97131 12.4532C9.74411 12.0284 9.60011 9.26845 9.56411 8.69965C9.56411 8.58925 9.56291 7.46725 9.16691 6.92485C8.88371 6.53605 8.40131 6.38485 8.10971 6.32965C8.18771 6.21685 8.35331 6.04405 8.56571 5.94205C9.09491 5.67805 10.0513 5.63965 11.0005 5.63965H11.5273C12.5569 5.65405 12.8233 5.72005 13.1977 5.81485C13.9513 5.99485 13.9657 6.48325 13.8997 8.14645C13.8805 8.62165 13.8601 9.15685 13.8601 9.78685C13.8601 9.92125 13.8541 10.0712 13.8541 10.2236C13.8313 11.0768 13.8013 12.038 14.4037 12.4328C14.4818 12.4815 14.5721 12.5073 14.6641 12.5072C14.8729 12.5072 15.4981 12.5072 17.1937 9.59725C17.9377 8.31205 18.5137 6.79645 18.5533 6.68245C18.5869 6.61885 18.6877 6.44005 18.8101 6.36805C18.8972 6.32172 18.9947 6.29858 19.0933 6.30085H23.1673C23.6113 6.30085 23.9125 6.36805 23.9713 6.53605C24.0697 6.80845 23.9521 7.64005 22.0921 10.1552C21.7789 10.574 21.5041 10.9364 21.2629 11.2532C19.5769 13.466 19.5769 13.5776 21.3625 15.2576Z" fill="#161616"/>
</g>
<defs>
<clipPath id="clip0_1945_2172">
<rect width="24" height="24" fill="white" transform="translate(0 0.5)"/>
</clipPath>
</defs>
</svg>
