<svg width="14" height="14" viewBox="0 0 14 14" fill="none" xmlns="http://www.w3.org/2000/svg">
<path fill-rule="evenodd" clip-rule="evenodd" d="M10.2988 13.998C9.28912 13.9609 6.42758 13.5655 3.43072 10.5699C0.434554 7.57366 0.0397867 4.71341 0.00192265 3.70321C-0.0541722 2.16373 1.12522 0.668404 2.48762 0.0844363C2.65169 0.0136079 2.83135 -0.0133586 3.00898 0.00618291C3.18661 0.0257244 3.35611 0.0911026 3.50084 0.195902C4.62273 1.01332 5.39684 2.24995 6.06157 3.2223C6.20782 3.43593 6.27036 3.69589 6.23725 3.95264C6.20415 4.2094 6.07772 4.445 5.88206 4.61457L4.51405 5.63038C4.44796 5.67809 4.40143 5.74817 4.38312 5.8276C4.36481 5.90702 4.37595 5.99039 4.41448 6.06222C4.72441 6.62515 5.27554 7.4636 5.9066 8.09454C6.53837 8.72548 7.41626 9.31295 8.01857 9.65786C8.09409 9.70025 8.18298 9.71209 8.26697 9.69097C8.35096 9.66985 8.42367 9.61736 8.47014 9.54429L9.36064 8.18918C9.52436 7.97175 9.76588 7.82609 10.0346 7.7827C10.3033 7.73932 10.5784 7.80157 10.8023 7.95643C11.7888 8.63925 12.9402 9.39988 13.783 10.4788C13.8963 10.6245 13.9684 10.798 13.9918 10.9812C14.0151 11.1643 13.9887 11.3503 13.9155 11.5198C13.3286 12.889 11.8435 14.0548 10.2988 13.998Z" fill="white"/>
</svg>
