<svg width="63" height="63" viewBox="0 0 63 63" fill="none" xmlns="http://www.w3.org/2000/svg">
<g id="Logo FF">
<path id="Vector" d="M21.7362 9.81392C21.5361 9.8866 21.2723 9.98653 21.145 10.0501C21.0177 10.1137 16.3249 14.7559 10.7044 20.3611C3.10127 27.9377 0.427447 30.6631 0.245555 30.9992C0.0363785 31.3898 0 31.5624 0 32.2256C0 32.8888 0.0363785 33.0614 0.245555 33.452C0.427447 33.7882 4.09258 37.5038 14.8879 48.269C30.8853 64.2307 29.5212 62.977 30.8308 62.977C31.9221 62.977 32.1222 62.8407 34.9325 60.0063C37.679 57.2446 37.7427 57.1538 37.7427 56.0273C37.7427 54.8644 37.7518 54.8826 34.1594 51.276L30.9217 48.0328L37.9337 41.0104C45.7369 33.2158 45.2912 33.7246 45.2912 32.4527C45.2912 31.3626 45.1457 31.1627 42.3628 28.401C39.6526 25.712 39.5525 25.6393 38.4248 25.6393C37.197 25.6393 37.679 25.2305 29.894 32.9887L22.873 39.9929L18.9896 36.1047L15.0971 32.2256L22.109 25.2123C29.8758 17.4359 29.4666 17.9174 29.4666 16.691C29.4666 15.5645 29.4029 15.4736 26.6563 12.7119C23.928 9.96836 23.6915 9.79575 22.6729 9.73216C22.3455 9.71399 21.9453 9.75033 21.7362 9.81392Z" fill="black"/>
<path id="Vector_2" d="M41.2635 53.2495C41.4634 53.1762 41.7268 53.0755 41.854 53.0115C41.9811 52.9476 46.6603 48.2917 52.2644 42.6701C59.8453 35.0714 62.5111 32.3382 62.692 32.0015C62.9001 31.6103 62.9359 31.4376 62.934 30.7744C62.9321 30.1112 62.8952 29.9387 62.6849 29.5487C62.502 29.2131 58.826 25.5082 47.9992 14.7745C31.9552 -1.14034 33.323 0.109343 32.0134 0.113165C30.9221 0.11635 30.7224 0.253202 27.9204 3.09579C25.182 5.86551 25.1186 5.95654 25.1219 7.08302C25.1253 8.24585 25.1161 8.2277 28.719 11.8238L31.9662 15.0575L24.9748 22.1004C17.1944 29.9177 17.6386 29.4076 17.6423 30.6795C17.6455 31.7696 17.7916 31.9691 20.5826 34.7226C23.3007 37.4038 23.4009 37.4761 24.5286 37.4729C25.7564 37.4693 25.2756 37.8795 33.0379 30.0986L40.0384 23.0739L43.9332 26.9507L47.837 30.8185L40.8456 37.8522C33.1015 45.6513 33.5094 45.1686 33.513 46.395C33.5163 47.5215 33.5802 47.6121 36.3348 50.3658C39.0712 53.1014 39.3082 53.2733 40.327 53.3339C40.6544 53.3512 41.0545 53.3137 41.2635 53.2495Z" fill="#FFCC00"/>
</g>
</svg>
